<?xml version="1.0" encoding="UTF-8" standalone="no"?>
<svg
   xmlns:dc="http://purl.org/dc/elements/1.1/"
   xmlns:cc="http://creativecommons.org/ns#"
   xmlns:rdf="http://www.w3.org/1999/02/22-rdf-syntax-ns#"
   xmlns:svg="http://www.w3.org/2000/svg"
   xmlns="http://www.w3.org/2000/svg"
   xmlns:sodipodi="http://sodipodi.sourceforge.net/DTD/sodipodi-0.dtd"
   xmlns:inkscape="http://www.inkscape.org/namespaces/inkscape"
   width="482"
   height="570"
   viewBox="0 0 482 570"
   id="svg2"
   version="1.1"
   inkscape:version="0.91 r13725"
   sodipodi:docname="rocket.svg">
  <metadata
     id="metadata104">
    <rdf:RDF>
      <cc:Work
         rdf:about="">
        <dc:format>image/svg+xml</dc:format>
        <dc:type
           rdf:resource="http://purl.org/dc/dcmitype/StillImage" />
      </cc:Work>
    </rdf:RDF>
  </metadata>
  <sodipodi:namedview
     pagecolor="#ffffff"
     bordercolor="#666666"
     borderopacity="1"
     objecttolerance="10"
     gridtolerance="10"
     guidetolerance="10"
     inkscape:pageopacity="0"
     inkscape:pageshadow="2"
     inkscape:window-width="2179"
     inkscape:window-height="1436"
     id="namedview102"
     showgrid="false"
     inkscape:zoom="1"
     inkscape:cx="99.5"
     inkscape:cy="277"
     inkscape:window-x="0"
     inkscape:window-y="30"
     inkscape:window-maximized="0"
     inkscape:current-layer="g54" />
  <defs
     id="defs4">
    <linearGradient
       id="d"
       x1="50%"
       x2="50%"
       y1="88.845%"
       y2="33.256%">
      <stop
         stop-color="#7991FF"
         offset=".51%"
         id="stop22" />
      <stop
         stop-color="#00B7FF"
         offset="100%"
         id="stop24" />
    </linearGradient>
  </defs>
  <g
     fill="none"
     fill-rule="evenodd"
     transform="translate(-1)"
     id="g46">
    <polygon
       fill="#FFFFFF"
       fill-rule="nonzero"
       points="178.559 13.008 175.276 .548 171.855 13.008 159.404 16.295 171.855 19.718 175.276 32.179 178.559 19.718 191.011 16.295"
       id="polygon48" />
    <g
       transform="translate(0 104.067)"
       id="g54">
      <ellipse
         cx="393.515"
         cy="338.081"
         rx="9.031"
         ry="9.037"
         id="ellipse62" />
      <path
         fill="url(#d)"
         fill-rule="nonzero"
         d="M254.224929,287.690887 L262.98187,287.690887 L262.98187,287.143165 L234.932295,287.964748 C234.932295,287.964748 241.910482,310.284412 229.732861,351.50048 C224.670255,368.616787 206.335411,384.77458 192.652691,394.770504 C195.115581,395.455156 204.009348,397.919904 213.313598,403.123261 C271.465156,363.413429 254.224929,287.690887 254.224929,287.690887 Z"
         id="path64" />
      <path
         fill="#00FFE6"
         fill-rule="nonzero"
         d="M290.484136,287.690887 L262.845042,287.690887 L254.088102,287.690887 C254.088102,287.690887 271.465156,363.276499 213.313598,403.123261 C214.134561,403.534053 215.092351,404.081775 215.913314,404.629496 C221.796884,408.189688 227.680453,412.708393 232.195751,418.459472 L241.636827,425.169065 L242.45779,425.032134 C260.929462,408.874341 293.22068,412.434532 293.22068,412.434532 C293.22068,412.434532 294.725779,408.73741 297.872805,403.534053 C299.377904,401.069305 301.293484,398.330695 303.619547,395.592086 C306.356091,392.305755 309.639943,388.882494 313.607932,385.870024 C317.712748,382.720624 321.543909,380.392806 325.785552,378.74964 C276.527762,342.189209 290.484136,287.690887 290.484136,287.690887 Z"
         id="path66"
         style="fill:#8cffcf;fill-opacity:1" />
      <path
         fill="#FFFFFF"
         fill-rule="nonzero"
         d="M254.635411,7.25731415 C254.635411,7.25731415 198.673088,85.5815348 193.2,164.453477 L193.884136,194.167386 C193.884136,194.167386 169.665722,198.959952 167.066006,235.931175 C164.466289,272.765468 163.782153,301.247002 181.02238,316.720144 C198.262606,332.193285 201.409632,334.247242 201.409632,334.247242 C201.409632,334.247242 209.482436,293.852758 217.281586,288.923261 C225.080737,284.130695 238.352975,285.36307 238.352975,285.36307 L250.667422,285.089209 L254.635411,7.25731415 Z"
         id="path68" />
      <path
         fill="#FFFFFF"
         fill-rule="nonzero"
         d="M254.635411,7.25731415 C254.635411,7.25731415 198.673088,85.5815348 193.2,164.453477 L193.884136,194.167386 C193.884136,194.167386 169.665722,198.959952 167.066006,235.931175 C164.466289,272.765468 163.782153,301.247002 181.02238,316.720144 C198.262606,332.193285 201.409632,334.247242 201.409632,334.247242 C201.409632,334.247242 209.482436,293.852758 217.281586,288.923261 C225.080737,284.130695 238.352975,285.36307 238.352975,285.36307 L250.667422,285.089209 L254.635411,7.25731415 Z"
         id="path70" />
      <path
         d="M343.162606,228.810791 C338.920963,213.47458 327.153824,201.561631 317.849575,191.702638 C317.986402,188.005516 316.891785,169.246043 316.891785,165.548921 C316.891785,125.428297 308.682153,103.656355 298.830595,76.8179856 L295.409915,70.5191847 C294.17847,67.0959233 289.389518,63.12494 288.158074,60.11247 C282.821813,46.8302158 277.485552,38.477458 271.601983,28.2076739 C262.845042,12.7345324 258.466572,8.90047962 256.961473,8.90047962 C255.456374,8.90047962 260.382153,-4.10791367 253.267139,12.1868106 C187.179603,163.768825 238.900283,291.52494 241.363173,286.458513 L297.59915,286.458513 C300.06204,291.52494 302.114448,296.865228 303.756374,302.616307 C306.082436,311.105995 307.450708,320.006475 307.587535,329.180815 C307.587535,330.960911 308.408499,332.467146 309.503116,333.425659 C310.050425,333.836451 310.734561,334.110312 311.418697,334.110312 C312.102833,334.110312 312.650142,333.973381 313.334278,333.56259 C327.290652,323.840528 338.1,307.271942 343.846742,286.732374 C349.456657,266.329736 348.909348,249.35036 343.162606,228.810791 Z"
         id="path74"
         fill-rule="nonzero"
         fill="#FFFFFF"
         style="fill:#8cffcf;fill-opacity:1" />
      <g
         fill="#1B0954"
         fill-rule="nonzero"
         transform="translate(265.445 282.077)"
         id="g78">
        <path
           d="M42.690085,109.407434 C41.1849858,109.407434 39.8167139,108.859712 38.5852691,107.901199 C-8.62011331,68.3282974 3.42067989,9.31127098 3.96798867,6.84652278 C4.65212465,3.28633094 8.20963173,1.09544365 11.6303116,1.91702638 C15.1878187,2.60167866 17.3770538,6.1618705 16.5560907,9.58513189 C16.1456091,11.7760192 5.74674221,63.5357314 46.7949008,98.0422062 C49.5314448,100.370024 49.9419263,104.477938 47.615864,107.216547 C46.3844193,108.585851 44.4688385,109.407434 42.690085,109.407434 Z"
           id="path80" />
        <path
           d="M42.690085,110.639808 C40.9113314,110.639808 39.1325779,109.955156 37.7643059,108.859712 C-9.98838527,68.8760192 2.18923513,9.17434053 2.73654391,6.70959233 C3.1470255,4.65563549 4.37847025,3.01247002 6.0203966,1.91702638 C7.79915014,0.821582734 9.71473088,0.410791367 11.7671388,0.821582734 C13.8195467,1.2323741 15.4614731,2.4647482 16.5560907,4.10791367 C17.6507082,5.88800959 18.0611898,7.80503597 17.6507082,9.85899281 C17.2402266,12.0498801 6.97818697,63.12494 47.615864,97.083693 C50.8997167,99.8223022 51.3101983,104.614868 48.5736544,107.901199 C47.0685552,109.544365 44.8793201,110.639808 42.690085,110.639808 Z M10.1252125,2.87553957 C9.1674221,2.87553957 8.07280453,3.14940048 7.25184136,3.6971223 C6.0203966,4.51870504 5.19943343,5.61414868 4.92577904,6.98345324 C4.37847025,9.44820144 -7.52549575,67.7805755 39.1325779,106.942686 C40.0903683,107.764269 41.321813,108.17506 42.5532578,108.17506 C44.0583569,108.17506 45.5634561,107.490408 46.6580737,106.258034 C48.5736544,104.067146 48.3,100.643885 45.9739377,98.7268585 C4.37847025,63.8095923 14.7773371,11.3652278 15.3246459,9.17434053 C15.5983003,7.80503597 15.3246459,6.43573141 14.6405099,5.20335731 C13.9563739,3.97098321 12.7249292,3.14940048 11.3566572,2.87553957 C10.9461756,3.01247002 10.5356941,2.87553957 10.1252125,2.87553957 Z"
           id="path82" />
      </g>
      <path
         fill="#1B0954"
         fill-rule="nonzero"
         d="M482.452691,450.364269 L482.452691,449.953477 L482.452691,447.76259 L482.452691,446.941007 C482.452691,446.393285 482.315864,445.845564 482.179037,445.297842 C481.494901,439.409832 479.852975,434.069544 476.569122,427.223022 C469.590935,412.708393 457.413314,401.617026 442.225496,396.276739 C432.373938,392.853477 421.701416,391.894964 411.576204,393.67506 C407.608215,394.359712 403.503399,395.592086 399.535411,397.235252 C392.146742,382.172902 378.874504,370.807674 362.865722,365.878177 C347.541076,361.222542 331.121813,362.865707 316.891785,370.396882 C303.209065,377.791127 292.947025,389.841007 288.021246,404.629496 C270.507365,402.71247 253.130312,407.915827 240.268555,418.733333 C232.606232,406.135731 220.428612,396.68753 205.924929,392.031894 C255.593201,352.048201 242.868272,289.197122 242.731445,288.37554 C242.320963,286.321583 241.089518,284.678417 239.447592,283.582974 C237.805666,282.48753 235.753258,282.076739 233.70085,282.48753 C229.596034,283.309113 226.996317,287.417026 227.81728,291.52494 C227.954108,292.072662 238.352975,344.106235 198.125779,378.475779 C191.284419,352.458993 167.750142,333.56259 139.837394,333.56259 C113.977054,333.56259 91.1269122,349.857314 82.7804533,374.230935 L82.7804533,374.230935 L82.7804533,374.230935 C75.9390935,371.629257 68.8240793,370.396882 61.4354108,370.396882 C28.1864023,370.396882 1.09461756,397.509113 1.09461756,430.783213 C1.09461756,439.546763 3.0101983,447.89952 6.56770538,455.841487 C6.84135977,456.8 9.44107649,461.181775 10.3988669,462.551079 C11.7671388,464.468106 13.9563739,465.70048 16.4192635,465.70048 C17.7875354,465.70048 19.1558074,465.289688 20.2504249,464.605036 C21.7555241,463.646523 22.7133144,462.140288 23.123796,460.223261 C23.3974504,458.990887 23.2606232,457.484652 22.5764873,455.704556 C22.5764873,455.704556 20.7977337,452.144365 19.566289,449.953477 L19.566289,449.953477 C16.829745,443.928537 15.4614731,437.629736 15.4614731,431.057074 C15.4614731,405.58801 36.1223796,385.048441 61.4354108,385.048441 C69.3713881,385.048441 77.3073654,387.102398 84.1487252,391.073381 C98.5155807,399.289209 107.546176,414.62542 107.546176,431.194005 C107.546176,435.164988 110.693201,438.314388 114.66119,438.314388 C118.629178,438.314388 121.776204,435.164988 121.776204,431.194005 C121.776204,411.339089 112.061473,392.716547 95.6422096,381.488249 C101.252125,361.907194 119.313314,348.351079 139.837394,348.351079 C162.824363,348.351079 182.390652,365.604317 185.40085,388.197842 C185.40085,388.608633 185.537677,389.019424 185.537677,389.430216 C181.98017,389.704077 179.243626,392.853477 179.243626,396.413669 C179.243626,400.247722 182.390652,403.534053 186.221813,403.534053 C187.179603,403.534053 188.137394,403.534053 189.232011,403.670983 C207.156374,404.629496 223.028329,414.76235 230.28017,429.961631 C227.406799,434.069544 225.080737,438.451319 223.43881,443.106954 C223.165156,443.928537 222.891501,444.75012 222.617847,445.571703 L222.48102,445.982494 C222.070538,446.804077 221.796884,447.625659 221.660057,448.447242 C221.249575,450.090408 220.975921,451.870504 220.702266,453.6506 C220.154958,457.484652 222.754674,461.181775 226.449008,461.729496 C228.227762,462.003357 230.006516,461.592566 231.511615,460.497122 C234.111331,458.717026 234.932295,454.882974 235.890085,450.77506 L236.026912,450.227338 C236.300567,449.405755 236.437394,448.584173 236.847875,447.76259 C240.815864,436.397362 249.435977,427.496882 261.066289,422.567386 C272.833428,417.63789 286.105666,417.364029 298.556941,421.745803 C300.335694,422.430456 302.251275,422.293525 304.030028,421.471942 C305.945609,420.513429 307.450708,418.733333 307.998017,416.542446 C308.81898,412.982254 306.766572,409.422062 303.072238,408.052758 C302.661756,407.915827 302.388102,407.778897 301.97762,407.641966 C310.324079,385.048441 335.363456,372.58777 358.487252,379.571223 C371.622663,383.542206 382.158357,392.579616 386.673654,403.807914 C386.673654,403.944844 386.810482,403.944844 386.810482,404.081775 L386.673654,404.218705 L386.673654,404.218705 C376.685269,411.339089 369.022946,421.608873 365.054958,432.974101 C363.686686,436.671223 365.739093,440.779137 369.433428,442.148441 C371.212181,442.833094 373.127762,442.696163 374.906516,441.87458 C376.685269,441.052998 377.916714,439.546763 378.60085,437.766667 C384.073938,422.156595 397.61983,410.654436 413.902266,407.778897 C421.701416,406.409592 429.774221,407.094245 437.299717,409.695923 C455.497734,416.131655 467.812181,433.521823 467.949008,452.829017 L467.949008,452.965947 L468.085836,453.376739 C468.35949,457.073861 471.506516,460.086331 475.20085,460.086331 L475.611331,460.086331 C477.390085,459.9494 479.032011,459.127818 480.263456,457.758513 C481.494901,456.389209 482.04221,454.609113 482.315864,451.870504 C482.315864,451.596643 482.452691,451.322782 482.452691,450.91199 C482.452691,450.91199 482.452691,450.638129 482.452691,450.364269 Z"
         id="path84" />
      <g
         fill="#1B0954"
         fill-rule="nonzero"
         transform="translate(233.975 104.067)"
         id="g88">
        <path
           d="M21.2082153,40.5314149 C10.3988669,40.5314149 1.64192635,31.7678657 1.64192635,20.9503597 C1.64192635,10.1328537 10.3988669,1.36930456 21.2082153,1.36930456 C32.0175637,1.36930456 40.7745042,10.1328537 40.7745042,20.9503597 C40.7745042,31.7678657 32.0175637,40.5314149 21.2082153,40.5314149 Z M21.2082153,9.17434053 C14.6405099,9.17434053 9.44107649,14.5146283 9.44107649,20.9503597 C9.44107649,27.5230216 14.7773371,32.7263789 21.2082153,32.7263789 C27.6390935,32.7263789 32.9753541,27.3860911 32.9753541,20.9503597 C32.9753541,14.3776978 27.6390935,9.17434053 21.2082153,9.17434053 Z"
           id="path90" />
        <path
           d="M21.2082153,41.6268585 C9.71473088,41.6268585 0.547308782,32.3155875 0.547308782,20.9503597 C0.547308782,9.44820144 9.85155807,0.273860911 21.2082153,0.273860911 C32.5648725,0.273860911 41.8691218,9.58513189 41.8691218,20.9503597 C41.8691218,32.3155875 32.5648725,41.6268585 21.2082153,41.6268585 Z M21.2082153,2.4647482 C11.0830028,2.4647482 2.8733711,10.6805755 2.8733711,20.8134293 C2.8733711,30.946283 11.0830028,39.1621103 21.2082153,39.1621103 C31.3334278,39.1621103 39.5430595,30.946283 39.5430595,20.8134293 C39.5430595,10.817506 31.3334278,2.4647482 21.2082153,2.4647482 Z M21.2082153,33.958753 C14.0932011,33.958753 8.20963173,28.0707434 8.20963173,20.9503597 C8.20963173,13.829976 14.0932011,7.94196643 21.2082153,7.94196643 C28.3232295,7.94196643 34.2067989,13.829976 34.2067989,20.9503597 C34.2067989,28.0707434 28.3232295,33.958753 21.2082153,33.958753 Z M21.2082153,10.2697842 C15.3246459,10.2697842 10.5356941,15.0623501 10.5356941,20.9503597 C10.5356941,26.8383693 15.3246459,31.6309353 21.2082153,31.6309353 C27.0917847,31.6309353 31.8807365,26.8383693 31.8807365,20.9503597 C31.8807365,15.0623501 27.0917847,10.2697842 21.2082153,10.2697842 Z"
           id="path92" />
      </g>
      <g
         fill="#1B0954"
         fill-rule="nonzero"
         transform="translate(155.983)"
         id="g96">
        <path
           d="M191.831728,226.209113 C186.632295,210.32518 177.738527,196.495204 166.108215,186.22542 C166.245042,182.117506 166.38187,178.420384 166.38187,174.860192 C166.38187,131.864029 152.835977,92.0172662 141.616147,66.0004796 C139.974221,62.3033573 138.469122,58.8800959 136.964023,55.8676259 C130.396317,42.0376499 122.733994,28.4815348 115.482153,17.9378897 C104.39915,1.64316547 101.388952,1.64316547 99.3365439,1.64316547 C97.284136,1.64316547 94.1371105,1.64316547 83.1909348,17.9378897 C75.9390935,28.6184652 68.4135977,42.0376499 61.7090652,55.8676259 C48.3,84.0752998 32.2912181,127.619185 32.2912181,174.860192 C32.2912181,178.283453 32.4280453,181.980576 32.5648725,186.088489 C20.9345609,196.495204 11.903966,210.46211 6.70453258,226.482974 C-0.273654391,247.981055 -0.136827195,271.533094 6.97818697,293.031175 C14.0932011,314.392326 27.6390935,331.782494 45.1529745,341.778417 C45.9739377,342.189209 46.7949008,342.46307 47.615864,342.46307 C48.5736544,342.46307 49.5314448,342.189209 50.2155807,341.641487 C51.7206799,340.682974 52.6784703,338.902878 52.8152975,336.985851 C52.9521246,327.53765 54.4572238,318.226379 57.4674221,309.325899 C59.3830028,303.57482 61.8458924,297.960671 64.8560907,292.757314 L134.090652,292.757314 C137.10085,298.097602 139.700567,303.57482 141.616147,309.325899 C144.489518,318.226379 146.131445,327.53765 146.268272,336.985851 C146.268272,338.902878 147.226062,340.682974 148.867989,341.641487 C150.373088,342.6 152.425496,342.6 154.067422,341.778417 C171.444476,331.645564 184.990368,314.255396 191.968555,292.894245 C198.946742,271.259233 198.946742,247.570264 191.831728,226.209113 Z M41.4586402,248.391847 C41.7322946,249.213429 41.8691218,250.035012 42.1427762,250.719664 C42.4164306,251.952038 42.8269122,253.184412 43.2373938,254.416787 L43.9215297,256.607674 C44.3320113,257.976978 44.7424929,259.346283 45.1529745,260.578657 L45.7002833,262.358753 C46.3844193,264.275779 46.931728,266.055875 47.615864,267.972902 L47.8895184,268.657554 C48.4368272,270.300719 49.1209632,271.806954 49.668272,273.45012 L50.3524079,275.230216 C50.7628895,276.46259 51.3101983,277.558034 51.8575071,278.653477 L52.6784703,280.570504 C53.0889518,281.665947 53.6362606,282.62446 54.0467422,283.719904 C54.3203966,284.404556 54.7308782,285.089209 55.0045326,285.63693 L55.6886686,287.006235 C52.4048159,292.757314 49.5314448,299.056115 47.4790368,305.628777 C45.1529745,312.61223 43.6478754,319.869544 42.9637394,327.126859 C16.0087819,306.45036 4.92577904,265.508153 16.5560907,229.769305 C20.2504249,218.267146 25.9971671,208.271223 33.3858357,199.918465 L33.7963173,203.889448 C33.9331445,205.258753 34.0699717,206.628058 34.2067989,207.997362 L34.4804533,210.599041 C34.6172805,212.105276 34.8909348,213.47458 35.027762,214.980815 L35.3014164,217.171703 C35.5750708,219.36259 35.9855524,221.416547 36.2592068,223.607434 C36.6696884,225.798321 36.9433428,227.852278 37.3538244,229.906235 L37.7643059,231.960192 C38.0379603,233.329496 38.3116147,234.698801 38.5852691,236.205036 L39.1325779,238.532854 C39.4062323,239.765228 39.6798867,240.997602 39.9535411,242.366906 L40.5008499,244.831655 C40.9113314,246.064029 41.1849858,247.159472 41.4586402,248.391847 Z M55.8254958,259.620144 C55.5518414,258.798561 55.278187,257.840048 55.0045326,257.018465 C54.7308782,256.059952 54.3203966,254.964508 54.0467422,254.005995 C53.7730878,253.047482 53.4994334,252.225899 53.225779,251.404317 C52.9521246,250.445803 52.6784703,249.48729 52.4048159,248.528777 L52.1311615,247.707194 C51.9943343,247.022542 51.7206799,246.33789 51.5838527,245.653237 C51.3101983,244.694724 51.0365439,243.599281 50.7628895,242.503837 L50.6260623,241.819185 C50.4892351,241.134532 50.2155807,240.44988 50.0787535,239.765228 C49.8050992,238.669784 49.5314448,237.711271 49.3946176,236.615827 L48.7104816,233.740288 C48.5736544,232.781775 48.3,231.823261 48.1631728,230.727818 L47.8895184,229.632374 C47.7526912,228.947722 47.615864,228.26307 47.4790368,227.578417 C47.3422096,226.756835 47.2053824,225.798321 46.931728,224.702878 L46.6580737,223.059712 C46.5212465,222.51199 46.5212465,221.964269 46.3844193,221.279616 C46.2475921,220.321103 46.1107649,219.225659 45.9739377,218.267146 L45.4266289,214.843885 C45.2898017,213.885372 45.1529745,212.926859 45.0161473,211.831415 L44.7424929,209.914388 C44.6056657,209.366667 44.6056657,208.818945 44.6056657,208.271223 C44.4688385,207.175779 44.3320113,206.080336 44.1951841,204.847962 L43.9215297,201.698561 C43.7847025,200.466187 43.7847025,199.370743 43.6478754,198.138369 L43.374221,195.125899 C43.2373938,192.935012 43.1005666,190.607194 42.9637394,188.416307 C42.8269122,183.897602 42.690085,179.378897 42.690085,174.997122 C42.690085,135.835012 54.594051,99.0007194 64.7192635,75.0378897 C86.4747875,80.6520384 112.335127,80.6520384 133.953824,75.0378897 C144.079037,99.0007194 155.983003,135.698082 155.983003,174.997122 C155.983003,179.515827 155.846176,184.034532 155.709348,188.553237 C155.572521,190.744125 155.435694,193.071942 155.298867,195.26283 L155.16204,197.453717 C155.025212,198.959952 154.888385,200.466187 154.751558,201.835492 L154.341076,205.258753 C154.204249,206.354197 154.067422,207.44964 154.067422,208.408153 L153.656941,211.694484 C153.520113,212.789928 153.383286,213.748441 153.246459,214.843885 L152.69915,218.267146 C152.562323,219.225659 152.425496,220.184173 152.288669,221.279616 C152.151841,221.964269 152.015014,222.648921 151.878187,223.333573 L151.604533,224.702878 C151.467705,225.661391 151.330878,226.619904 151.057224,227.578417 L150.373088,230.864748 C150.236261,231.823261 149.962606,232.781775 149.825779,233.740288 C149.688952,234.42494 149.552125,235.246523 149.27847,235.931175 L149.004816,237.026619 C148.731161,237.985132 148.594334,238.943645 148.32068,239.902158 L147.636544,242.640767 C147.36289,243.736211 147.089235,244.831655 146.815581,245.790168 C146.541926,246.611751 146.405099,247.433333 146.131445,248.254916 L145.994618,248.528777 C145.720963,249.624221 145.447309,250.582734 145.173654,251.678177 C144.9,252.636691 144.626346,253.458273 144.352691,254.416787 C144.079037,255.3753 143.805382,256.333813 143.394901,257.292326 C143.121246,258.113909 142.847592,259.072422 142.573938,259.894005 C142.300283,260.852518 141.889802,261.811031 141.616147,262.769544 C141.342493,263.591127 140.932011,264.54964 140.658357,265.371223 C140.247875,266.329736 139.974221,267.288249 139.563739,268.246763 C139.290085,269.068345 138.879603,269.889928 138.605949,270.711511 L138.605949,270.711511 C138.195467,271.670024 137.784986,272.491607 137.511331,273.45012 C137.10085,274.271703 136.827195,275.093285 136.416714,275.914868 C136.006232,276.736451 135.595751,277.694964 135.185269,278.516547 C134.774788,279.338129 134.501133,280.022782 134.090652,280.844365 L133.543343,281.802878 L64.7192635,281.802878 L64.3087819,280.570504 C63.8983003,279.748921 63.6246459,279.064269 63.2141643,278.242686 C62.8036827,277.421103 62.3932011,276.46259 61.9827195,275.641007 C61.572238,274.819424 61.2985836,273.997842 60.888102,273.176259 C60.4776204,272.217746 60.0671388,271.396163 59.7934844,270.43765 C59.51983,269.616067 59.1093484,268.794484 58.8356941,267.972902 C58.4252125,267.014388 58.1515581,266.055875 57.7410765,265.097362 C57.3305949,264.138849 57.0569405,263.317266 56.7832861,262.495683 C56.3728045,261.53717 56.0991501,260.578657 55.8254958,259.620144 Z M143.531728,285.63693 C143.805382,284.952278 144.215864,284.404556 144.489518,283.719904 C145.036827,282.62446 145.447309,281.665947 145.994618,280.570504 L146.815581,278.653477 C147.36289,277.558034 147.773371,276.325659 148.32068,275.093285 L149.004816,273.313189 C149.688952,271.670024 150.236261,270.163789 150.783569,268.520624 L151.057224,267.972902 C151.74136,266.192806 152.425496,264.275779 152.972805,262.358753 L153.520113,260.715588 C153.930595,259.346283 154.341076,257.976978 154.751558,256.607674 L155.435694,254.553717 C155.846176,253.321343 156.11983,252.088969 156.530312,250.856595 L157.214448,248.528777 C157.488102,247.296403 157.898584,246.064029 158.172238,244.831655 C158.309065,244.010072 158.58272,243.188489 158.719547,242.503837 C158.993201,241.271463 159.266856,239.902158 159.54051,238.669784 L160.087819,236.341966 C160.361473,234.972662 160.635127,233.466427 160.908782,232.097122 L161.319263,230.180096 C161.729745,228.126139 162.140227,226.072182 162.413881,223.881295 C162.824363,221.690408 163.098017,219.636451 163.371671,217.445564 L163.645326,215.391607 C163.782153,213.885372 164.055807,212.379137 164.192635,211.009832 L164.466289,208.545084 C164.603116,207.175779 164.739943,205.806475 164.876771,204.43717 L165.287252,200.466187 C172.675921,208.682014 178.285836,218.677938 181.98017,229.906235 C193.747309,265.645084 182.801133,306.58729 155.846176,327.400719 C155.025212,320.006475 153.520113,312.886091 151.194051,305.902638 C149.004816,299.329976 146.268272,293.031175 142.847592,287.143165 L143.531728,285.63693 Z M69.0977337,64.6311751 L69.2345609,64.2203837 C81.1385269,38.477458 93.5898017,20.128777 99.1997167,13.6930456 C104.809632,19.9918465 117.260907,38.3405276 129.164873,64.2203837 L129.3017,64.6311751 C110.556374,69.2868106 88.1167139,69.2868106 69.0977337,64.6311751 Z"
           id="path98" />
        <path
           d="M47.615864,343.421583 C46.5212465,343.421583 45.4266289,343.147722 44.6056657,342.6 C26.9549575,332.467146 13.1354108,314.803118 6.0203966,293.168106 C-1.23144476,271.533094 -1.23144476,247.707194 5.74674221,225.935252 C10.9461756,209.914388 19.8399433,195.947482 31.470255,185.403837 C31.3334278,181.432854 31.3334278,178.009592 31.3334278,174.723261 C31.3334278,127.208393 47.4790368,83.5275779 60.888102,55.1829736 C67.4558074,41.3529976 75.1181303,27.7968825 82.3699717,16.9793765 C93.7266289,0.273860911 97.0104816,0.273860911 99.4733711,0.273860911 C101.936261,0.273860911 105.220113,0.273860911 116.576771,16.9793765 C123.828612,27.659952 131.490935,41.2160671 138.05864,55.1829736 C139.563739,58.3323741 141.068839,61.7556355 142.710765,65.4527578 C154.067422,91.4695444 167.613314,131.590168 167.613314,174.723261 C167.613314,178.146523 167.613314,181.706715 167.33966,185.540767 C178.833144,195.947482 187.726912,209.777458 192.926346,225.661391 L192.926346,225.661391 C200.04136,247.296403 200.04136,271.259233 192.926346,292.894245 C185.811331,314.529257 172.128612,332.193285 154.477904,342.46307 C152.562323,343.558513 150.099433,343.558513 148.183853,342.326139 C146.268272,341.230695 145.173654,339.039808 145.036827,336.71199 C144.9,327.400719 143.258074,318.226379 140.384703,309.46283 C138.605949,303.985612 136.279887,298.645324 133.406516,293.715827 L65.4033994,293.715827 C62.5300283,298.782254 60.203966,303.985612 58.4252125,309.46283 C55.5518414,318.226379 54.0467422,327.400719 53.909915,336.71199 C53.909915,339.039808 52.6784703,341.093765 50.7628895,342.326139 C49.8050992,343.147722 48.7104816,343.421583 47.615864,343.421583 Z M64.7192635,291.52494 L133.953824,291.52494 C134.364306,291.52494 134.774788,291.798801 134.911615,292.072662 C138.05864,297.41295 140.52153,303.027098 142.43711,308.915108 C145.447309,317.952518 146.952408,327.263789 147.226062,336.848921 C147.226062,338.355156 148.047025,339.72446 149.27847,340.409113 C150.509915,341.093765 152.015014,341.230695 153.246459,340.409113 C170.349858,330.413189 183.758924,313.296882 190.73711,292.072662 C197.715297,270.848441 197.715297,247.570264 190.73711,226.346043 L190.73711,226.346043 C185.537677,210.599041 176.780737,196.905995 165.287252,186.773141 C165.013598,186.499281 164.876771,186.22542 164.876771,185.814628 C165.013598,181.706715 165.150425,178.009592 165.150425,174.4494 C165.150425,131.590168 151.74136,91.8803357 140.384703,66.1374101 C138.742776,62.4402878 137.237677,59.0170264 135.732578,56.0045564 C129.164873,42.1745803 121.639377,28.7553957 114.387535,18.2117506 C103.715014,2.4647482 100.704816,2.4647482 99.1997167,2.4647482 C97.5577904,2.4647482 94.6844193,2.4647482 84.011898,18.2117506 C76.7600567,28.7553957 69.2345609,42.3115108 62.6668555,56.0045564 C49.2577904,84.0752998 33.3858357,127.482254 33.3858357,174.4494 C33.3858357,177.872662 33.5226629,181.432854 33.6594901,185.677698 C33.6594901,186.088489 33.5226629,186.36235 33.2490085,186.636211 C21.7555241,196.905995 12.8617564,210.599041 7.79915014,226.482974 C0.957790368,247.707194 0.957790368,271.122302 8.07280453,292.209592 C15.1878187,313.296882 28.4600567,330.413189 45.7002833,340.409113 C46.931728,341.093765 48.4368272,341.093765 49.668272,340.272182 C50.8997167,339.4506 51.5838527,338.081295 51.7206799,336.57506 C51.8575071,326.989928 53.4994334,317.541727 56.3728045,308.641247 C58.2883853,302.890168 60.7512748,297.139089 63.8983003,291.798801 C63.8983003,291.798801 64.3087819,291.52494 64.7192635,291.52494 Z M42.9637394,328.359233 C42.690085,328.359233 42.4164306,328.222302 42.2796034,328.085372 C14.9141643,307.135012 3.69433428,265.645084 15.4614731,229.358513 C19.2926346,217.719424 25.0393768,207.586571 32.5648725,199.096882 C32.8385269,198.686091 33.3858357,198.686091 33.7963173,198.823022 C34.2067989,198.959952 34.4804533,199.370743 34.6172805,199.781535 L35.027762,203.752518 C35.1645892,205.121823 35.3014164,206.491127 35.4382436,207.860432 L35.711898,210.46211 C35.8487252,211.968345 36.1223796,213.33765 36.2592068,214.843885 L36.5328612,217.034772 C36.8065156,219.225659 37.2169972,221.279616 37.4906516,223.470504 C37.9011331,225.661391 38.1747875,227.715348 38.5852691,229.769305 L38.9957507,231.823261 C39.2694051,233.192566 39.5430595,234.561871 39.8167139,235.931175 L40.3640227,238.258993 C40.6376771,239.491367 40.9113314,240.723741 41.1849858,241.956115 L41.7322946,244.420863 C42.005949,245.653237 42.2796034,246.885612 42.690085,247.981055 L42.690085,247.981055 C42.9637394,248.802638 43.1005666,249.624221 43.374221,250.308873 C43.6478754,251.541247 44.0583569,252.773621 44.4688385,254.005995 L45.1529745,256.196882 C45.5634561,257.566187 45.9739377,258.798561 46.3844193,260.167866 L46.931728,261.947962 C47.615864,263.864988 48.1631728,265.645084 48.8473088,267.42518 L49.1209632,268.109832 C49.668272,269.752998 50.3524079,271.259233 50.8997167,272.902398 L51.5838527,274.682494 C51.9943343,275.777938 52.5416431,277.010312 53.0889518,278.105755 L53.909915,280.022782 C54.3203966,281.118225 54.8677054,282.076739 55.278187,283.172182 C55.5518414,283.856835 55.9623229,284.541487 56.2359773,285.089209 L56.9201133,286.458513 C57.0569405,286.869305 57.0569405,287.280096 56.9201133,287.553957 C53.6362606,293.305036 50.8997167,299.466906 48.7104816,306.039568 C46.5212465,312.886091 45.0161473,320.143405 44.1951841,327.400719 C44.1951841,327.811511 43.9215297,328.222302 43.5110482,328.359233 C43.2373938,328.359233 43.1005666,328.359233 42.9637394,328.359233 Z M32.4280453,202.930935 C25.9971671,210.735971 20.9345609,219.910312 17.6507082,230.180096 C6.43087819,264.686571 16.6929178,304.259472 42.005949,324.935971 C42.8269122,318.226379 44.3320113,311.653717 46.3844193,305.217986 C48.4368272,298.782254 51.1733711,292.620384 54.4572238,286.869305 L54.0467422,286.047722 C53.7730878,285.36307 53.3626062,284.678417 53.0889518,284.130695 C52.5416431,283.035252 52.1311615,282.076739 51.5838527,280.981295 L50.7628895,279.064269 C50.2155807,277.831894 49.8050992,276.736451 49.2577904,275.504077 L48.5736544,273.723981 C47.8895184,272.080815 47.3422096,270.57458 46.7949008,268.931415 L46.5212465,268.246763 C45.8371105,266.329736 45.1529745,264.54964 44.6056657,262.632614 L44.0583569,260.852518 C43.6478754,259.483213 43.2373938,258.250839 42.8269122,256.881535 L42.1427762,254.690647 C41.7322946,253.458273 41.4586402,252.225899 41.0481586,250.993525 C40.7745042,250.171942 40.6376771,249.35036 40.3640227,248.665707 C40.0903683,247.433333 39.6798867,246.200959 39.4062323,244.968585 L38.8589235,242.503837 C38.5852691,241.271463 38.3116147,239.902158 38.0379603,238.669784 L37.4906516,236.341966 C37.2169972,234.972662 36.9433428,233.466427 36.6696884,232.097122 L36.2592068,230.043165 C35.8487252,227.989209 35.4382436,225.935252 35.1645892,223.607434 C34.7541076,221.416547 34.4804533,219.36259 34.2067989,217.171703 L33.9331445,214.980815 C33.7963173,213.47458 33.5226629,212.105276 33.3858357,210.599041 L33.1121813,207.997362 C32.9753541,206.628058 32.8385269,205.258753 32.7016997,203.889448 L32.4280453,202.930935 Z M155.983003,328.359233 C155.846176,328.359233 155.709348,328.359233 155.572521,328.222302 C155.16204,328.085372 154.888385,327.67458 154.888385,327.263789 C154.067422,320.006475 152.562323,312.886091 150.236261,306.039568 C148.047025,299.466906 145.310482,293.305036 141.889802,287.553957 C141.752975,287.280096 141.616147,286.869305 141.889802,286.458513 L142.573938,285.089209 L142.573938,285.089209 C142.847592,284.404556 143.258074,283.856835 143.531728,283.172182 C144.079037,282.076739 144.489518,281.118225 145.036827,280.022782 L145.85779,278.105755 C146.405099,277.010312 146.815581,275.777938 147.36289,274.682494 L148.047025,272.902398 C148.731161,271.396163 149.27847,269.752998 149.825779,268.109832 L150.099433,267.42518 C150.783569,265.645084 151.467705,263.728058 152.015014,261.811031 L152.562323,260.167866 C152.972805,258.798561 153.383286,257.429257 153.793768,256.059952 L154.477904,254.005995 C154.888385,252.773621 155.16204,251.541247 155.572521,250.308873 L156.256657,247.981055 C156.530312,246.748681 156.940793,245.516307 157.214448,244.283933 C157.351275,243.46235 157.624929,242.640767 157.761756,241.956115 C158.035411,240.723741 158.309065,239.354436 158.58272,238.122062 L159.130028,235.794245 C159.403683,234.42494 159.677337,232.918705 159.950992,231.5494 L160.361473,229.632374 C160.771955,227.578417 161.182436,225.52446 161.456091,223.333573 C161.866572,221.142686 162.140227,219.088729 162.413881,216.897842 L162.687535,214.843885 C162.824363,213.33765 163.098017,211.831415 163.234844,210.46211 L163.508499,207.997362 C163.645326,206.628058 163.782153,205.258753 163.91898,203.889448 L164.329462,199.918465 C164.329462,199.507674 164.739943,199.096882 165.150425,198.959952 C165.560907,198.823022 166.108215,198.959952 166.38187,199.233813 C173.907365,207.586571 179.654108,217.719424 183.348442,229.221583 C195.252408,265.371223 184.032578,306.861151 156.803966,327.948441 C156.393484,328.359233 156.11983,328.359233 155.983003,328.359233 Z M144.215864,286.869305 C147.499717,292.620384 150.236261,298.782254 152.425496,305.354916 C154.477904,311.653717 155.983003,318.363309 156.940793,325.072902 C182.253824,304.122542 192.379037,264.686571 181.02238,230.180096 C177.6017,219.910312 172.675921,210.872902 166.245042,203.204796 L166.108215,204.43717 C165.971388,205.806475 165.834561,207.175779 165.697734,208.545084 L165.424079,211.009832 C165.287252,212.516067 165.013598,214.022302 164.876771,215.528537 L164.603116,217.582494 C164.329462,219.773381 163.91898,221.964269 163.645326,224.155156 C163.234844,226.346043 162.96119,228.4 162.550708,230.453957 L162.140227,232.370983 C161.866572,233.740288 161.592918,235.246523 161.319263,236.615827 L160.771955,238.943645 C160.4983,240.176019 160.224646,241.545324 159.950992,242.777698 C159.814164,243.599281 159.54051,244.420863 159.403683,245.105516 C159.130028,246.33789 158.719547,247.570264 158.445892,248.802638 L157.761756,251.130456 C157.351275,252.36283 157.07762,253.595204 156.667139,254.827578 L155.983003,256.881535 C155.572521,258.250839 155.16204,259.620144 154.614731,260.989448 L154.067422,262.632614 C153.383286,264.54964 152.835977,266.466667 152.151841,268.246763 L151.878187,268.931415 C151.330878,270.57458 150.646742,272.080815 150.099433,273.723981 L149.415297,275.504077 C148.867989,276.736451 148.457507,277.831894 147.910198,279.064269 L147.089235,280.981295 C146.541926,282.076739 146.131445,283.172182 145.584136,284.130695 C145.310482,284.815348 144.9,285.5 144.626346,286.047722 L144.215864,286.869305 Z M133.816997,282.898321 L64.9929178,282.898321 C64.5824363,282.898321 64.1719547,282.62446 63.8983003,282.213669 L63.3509915,280.981295 C62.9405099,280.159712 62.5300283,279.47506 62.2563739,278.653477 C61.8458924,277.831894 61.4354108,276.873381 61.0249292,276.051799 C60.6144476,275.230216 60.3407932,274.408633 59.9303116,273.58705 C59.51983,272.628537 59.1093484,271.806954 58.8356941,270.848441 C58.5620397,270.026859 58.1515581,269.205276 57.8779037,268.383693 C57.4674221,267.42518 57.1937677,266.466667 56.7832861,265.508153 C56.3728045,264.54964 56.0991501,263.728058 55.8254958,262.906475 C55.4150142,261.947962 55.1413598,260.989448 54.8677054,259.894005 L55.9623229,259.483213 L54.8677054,259.757074 C54.594051,258.935492 54.3203966,258.113909 54.0467422,257.155396 C53.7730878,256.196882 53.3626062,255.101439 53.0889518,254.142926 C52.8152975,253.184412 52.5416431,252.36283 52.2679887,251.541247 C51.9943343,250.582734 51.7206799,249.624221 51.4470255,248.665707 L51.1733711,247.844125 C51.0365439,247.159472 50.7628895,246.47482 50.6260623,245.653237 C50.3524079,244.694724 50.0787535,243.599281 49.8050992,242.503837 L49.5314448,241.682254 C49.3946176,240.997602 49.2577904,240.31295 48.984136,239.765228 C48.7104816,238.806715 48.5736544,237.848201 48.3,236.752758 L47.615864,233.740288 C47.3422096,232.781775 47.2053824,231.823261 47.0685552,230.727818 L46.7949008,229.632374 C46.6580737,228.810791 46.5212465,228.26307 46.3844193,227.578417 C46.2475921,226.756835 46.1107649,225.798321 45.8371105,224.702878 L45.5634561,222.922782 C45.4266289,222.37506 45.4266289,221.827338 45.2898017,221.279616 C45.1529745,220.321103 45.0161473,219.225659 44.8793201,218.267146 L44.3320113,214.843885 C44.1951841,213.885372 44.0583569,212.789928 43.9215297,211.831415 L43.6478754,209.914388 C43.5110482,209.366667 43.5110482,208.818945 43.374221,208.271223 C43.2373938,207.175779 43.1005666,206.080336 42.9637394,204.847962 L42.690085,201.698561 C42.5532578,200.466187 42.5532578,199.233813 42.4164306,198.138369 L42.1427762,195.125899 C42.005949,192.935012 41.8691218,190.607194 41.7322946,188.416307 C41.5954674,183.897602 41.4586402,179.378897 41.4586402,174.997122 C41.4586402,135.561151 53.4994334,98.5899281 63.6246459,74.6270983 C63.8983003,74.0793765 64.4456091,73.8055156 64.9929178,73.942446 C86.4747875,79.5565947 112.1983,79.5565947 133.68017,73.942446 C134.227479,73.8055156 134.774788,74.0793765 135.048442,74.6270983 C145.173654,98.5899281 157.07762,135.561151 157.07762,174.997122 C157.07762,179.515827 156.940793,184.034532 156.803966,188.690168 C156.667139,190.881055 156.530312,193.208873 156.393484,195.39976 L156.256657,197.590647 C156.11983,199.096882 155.983003,200.603118 155.846176,202.109353 L155.435694,205.532614 C155.298867,206.628058 155.16204,207.723501 155.16204,208.682014 L154.751558,211.968345 C154.614731,213.063789 154.477904,214.022302 154.341076,215.117746 L153.793768,218.541007 C153.656941,219.49952 153.520113,220.594964 153.383286,221.553477 C153.246459,222.238129 153.109632,222.922782 152.972805,223.607434 L152.69915,224.976739 C152.562323,225.935252 152.425496,226.893765 152.151841,227.852278 L151.467705,231.138609 C151.330878,232.097122 151.057224,233.055635 150.920397,234.014149 C150.783569,234.698801 150.646742,235.246523 150.509915,235.931175 L150.236261,237.30048 C149.962606,238.258993 149.825779,239.217506 149.552125,240.176019 L148.867989,242.914628 C148.594334,244.010072 148.32068,245.105516 148.047025,246.064029 C147.773371,246.885612 147.636544,247.707194 147.36289,248.528777 L147.226062,248.802638 C146.952408,249.898082 146.678754,250.856595 146.405099,251.952038 C146.131445,252.910552 145.85779,253.732134 145.584136,254.690647 L145.584136,254.827578 C145.310482,255.786091 145.036827,256.744604 144.763173,257.566187 C144.489518,258.38777 144.215864,259.346283 143.94221,260.167866 C143.668555,261.126379 143.258074,262.084892 142.984419,263.043405 C142.710765,263.864988 142.300283,264.823501 142.026629,265.645084 C141.616147,266.603597 141.342493,267.56211 140.932011,268.520624 C140.658357,269.342206 140.247875,270.163789 139.974221,270.985372 C139.563739,271.943885 139.153258,272.765468 138.879603,273.723981 C138.469122,274.545564 138.195467,275.367146 137.784986,276.188729 C137.374504,277.147242 136.964023,277.968825 136.553541,278.790408 C136.143059,279.61199 135.732578,280.433573 135.458924,281.118225 L134.911615,282.076739 C134.63796,282.62446 134.227479,282.898321 133.816997,282.898321 Z M65.6770538,280.570504 L133.132861,280.570504 L133.269688,280.159712 C133.68017,279.338129 133.953824,278.653477 134.364306,277.831894 C134.774788,277.010312 135.185269,276.051799 135.595751,275.230216 C136.006232,274.408633 136.279887,273.58705 136.690368,272.765468 C137.10085,271.806954 137.511331,270.985372 137.784986,270.026859 C138.05864,269.205276 138.469122,268.383693 138.742776,267.56211 C139.153258,266.603597 139.426912,265.645084 139.837394,264.823501 C140.111048,264.001918 140.52153,263.180336 140.795184,262.221823 C141.068839,261.263309 141.47932,260.304796 141.752975,259.346283 C142.026629,258.5247 142.300283,257.566187 142.573938,256.744604 C142.847592,255.786091 143.121246,254.964508 143.394901,254.005995 L143.394901,253.869065 C143.668555,252.910552 143.94221,252.088969 144.215864,251.130456 C144.489518,250.171942 144.763173,249.076499 145.036827,248.117986 L145.173654,247.844125 C145.447309,247.022542 145.584136,246.200959 145.85779,245.379376 C146.131445,244.283933 146.405099,243.32542 146.678754,242.229976 L147.36289,239.491367 C147.636544,238.532854 147.773371,237.574341 148.047025,236.615827 L148.32068,235.246523 C148.457507,234.698801 148.594334,234.014149 148.731161,233.466427 C148.867989,232.507914 149.141643,231.5494 149.27847,230.590887 L149.962606,227.304556 C150.099433,226.346043 150.236261,225.38753 150.509915,224.429017 L150.783569,223.059712 C150.920397,222.37506 151.057224,221.690408 151.194051,221.005755 C151.330878,220.047242 151.467705,219.088729 151.604533,217.993285 L152.151841,214.570024 C152.288669,213.611511 152.425496,212.516067 152.562323,211.420624 L152.972805,208.134293 C153.109632,207.175779 153.246459,206.080336 153.246459,204.984892 L153.656941,201.561631 C153.793768,200.055396 153.930595,198.686091 154.067422,197.179856 L154.204249,194.988969 C154.341076,192.798082 154.477904,190.607194 154.614731,188.279376 C154.751558,183.760671 154.888385,179.241966 154.888385,174.723261 C154.888385,136.245803 143.258074,99.9592326 133.406516,76.1333333 C112.061473,81.4736211 86.8852691,81.4736211 65.5402266,76.1333333 C55.6886686,99.9592326 44.0583569,136.108873 44.0583569,174.723261 C44.0583569,179.105036 44.1951841,183.623741 44.3320113,188.142446 C44.4688385,190.333333 44.6056657,192.661151 44.7424929,194.852038 L45.0161473,197.864508 C45.1529745,199.096882 45.1529745,200.192326 45.2898017,201.4247 L45.5634561,204.574101 C45.7002833,205.806475 45.8371105,206.901918 45.9739377,207.997362 C45.9739377,208.545084 46.1107649,209.092806 46.1107649,209.640528 L46.3844193,211.557554 C46.5212465,212.516067 46.6580737,213.47458 46.7949008,214.570024 L47.3422096,217.856355 C47.4790368,218.814868 47.615864,219.910312 47.7526912,220.868825 C47.8895184,221.416547 47.8895184,221.964269 48.0263456,222.37506 L48.3,224.292086 C48.4368272,225.38753 48.7104816,226.346043 48.8473088,227.167626 C48.984136,227.852278 49.1209632,228.53693 49.2577904,229.084652 L49.5314448,230.317026 C49.668272,231.41247 49.9419263,232.370983 50.0787535,233.192566 L50.7628895,236.205036 C51.0365439,237.30048 51.1733711,238.258993 51.4470255,239.217506 C51.5838527,239.902158 51.7206799,240.44988 51.8575071,241.134532 L52.1311615,241.956115 C52.4048159,243.051559 52.6784703,244.010072 52.9521246,245.105516 C53.0889518,245.790168 53.3626062,246.47482 53.4994334,247.159472 L53.7730878,247.981055 C54.0467422,248.939568 54.3203966,249.898082 54.594051,250.856595 C54.8677054,251.678177 55.1413598,252.49976 55.4150142,253.458273 C55.6886686,254.553717 56.0991501,255.51223 56.3728045,256.470743 C56.6464589,257.292326 56.9201133,258.113909 57.1937677,258.935492 L57.1937677,259.072422 C57.4674221,260.030935 57.8779037,260.989448 58.1515581,261.947962 C58.4252125,262.769544 58.6988669,263.454197 59.1093484,264.41271 C59.51983,265.371223 59.7934844,266.329736 60.203966,267.288249 C60.4776204,268.109832 60.888102,268.931415 61.1617564,269.752998 C61.572238,270.711511 61.8458924,271.533094 62.2563739,272.491607 C62.6668555,273.313189 62.9405099,274.134772 63.3509915,274.956355 C63.7614731,275.777938 64.1719547,276.736451 64.5824363,277.558034 C64.9929178,278.379616 65.2665722,279.064269 65.6770538,279.885851 L65.6770538,280.570504 L65.6770538,280.570504 Z M99.3365439,69.2868106 C88.9376771,69.2868106 78.401983,68.1913669 68.8240793,65.8635492 C68.5504249,65.7266187 68.1399433,65.5896882 68.0031161,65.1788969 C67.866289,64.905036 67.866289,64.4942446 68.0031161,64.2203837 L68.1399433,63.8095923 C81.0016997,36.0127098 93.4529745,18.4856115 98.3787535,13.0083933 C98.7892351,12.4606715 99.6101983,12.4606715 100.157507,13.0083933 C104.946459,18.3486811 117.534561,36.0127098 130.396317,63.8095923 L130.533144,64.2203837 C130.669972,64.4942446 130.669972,64.905036 130.533144,65.1788969 C130.396317,65.4527578 130.122663,65.7266187 129.712181,65.8635492 C120.271105,68.0544365 109.735411,69.2868106 99.3365439,69.2868106 Z M70.7396601,63.8095923 C88.6640227,67.917506 109.872238,67.917506 127.796601,63.8095923 C116.713598,39.983693 105.083286,22.4565947 99.3365439,15.4731415 C93.4529745,22.4565947 81.8226629,39.983693 70.7396601,63.8095923 Z"
           id="path100" />
      </g>
    </g>
  </g>
</svg>
