<?xml version="1.0" encoding="UTF-8" standalone="no"?>
<svg
   xmlns:dc="http://purl.org/dc/elements/1.1/"
   xmlns:cc="http://creativecommons.org/ns#"
   xmlns:rdf="http://www.w3.org/1999/02/22-rdf-syntax-ns#"
   xmlns:svg="http://www.w3.org/2000/svg"
   xmlns="http://www.w3.org/2000/svg"
   xmlns:sodipodi="http://sodipodi.sourceforge.net/DTD/sodipodi-0.dtd"
   xmlns:inkscape="http://www.inkscape.org/namespaces/inkscape"
   enable-background="new 0 0 128 128"
   id="Слой_1"
   version="1.1"
   viewBox="0 0 112 93.824997"
   xml:space="preserve"
   sodipodi:docname="logo.svg"
   inkscape:version="0.91 r13725"
   width="112"
   height="93.824997"><metadata
     id="metadata3831"><rdf:RDF><cc:Work
         rdf:about=""><dc:format>image/svg+xml</dc:format><dc:type
           rdf:resource="http://purl.org/dc/dcmitype/StillImage" /></cc:Work></rdf:RDF></metadata><defs
     id="defs3829" /><sodipodi:namedview
     pagecolor="#ffffff"
     bordercolor="#666666"
     borderopacity="1"
     objecttolerance="10"
     gridtolerance="10"
     guidetolerance="10"
     inkscape:pageopacity="0"
     inkscape:pageshadow="2"
     inkscape:window-width="3840"
     inkscape:window-height="1537"
     id="namedview3827"
     showgrid="false"
     inkscape:zoom="5.6568542"
     inkscape:cx="97.734059"
     inkscape:cy="51.869932"
     inkscape:window-x="0"
     inkscape:window-y="30"
     inkscape:window-maximized="1"
     inkscape:current-layer="g3824" /><g
     id="g3824"
     transform="translate(-8,-17.075)"><g
       id="g3794"
       style="fill:#8aa678"><path
         d="m 114.5,87.5 -39.6,19.8 c -6.9,3.4 -15,3.4 -21.8,0 L 13.5,87.5 c -6,-3 -6,-11.5 0,-14.5 L 53.1,53.2 c 6.9,-3.4 15,-3.4 21.8,0 L 114.5,73 c 6,3 6,11.5 0,14.5 z"
         id="path3792"
         inkscape:connector-curvature="0"
         style="fill:#8aa678" /></g><g
       id="g3798"><path
         d="m 64,110.9 c -3.9,0 -7.8,-0.9 -11.4,-2.7 L 13,88.4 C 9.9,86.8 8,83.7 8,80.2 8,76.7 9.9,73.6 13,72 L 52.6,52.2 c 7,-3.5 15.7,-3.5 22.7,0 L 115,72.1 c 3.1,1.6 5,4.7 5,8.2 0,3.5 -1.9,6.6 -5,8.2 l -39.6,19.8 c -3.6,1.7 -7.5,2.6 -11.4,2.6 z m 0,-59.3 c -3.6,0 -7.2,0.9 -10.5,2.5 L 13.9,73.9 c -2.5,1.2 -3.9,3.6 -3.9,6.4 0,2.8 1.5,5.1 3.9,6.4 l 39.6,19.8 c 6.5,3.2 14.5,3.2 20.9,0 L 114,86.7 c 2.5,-1.2 3.9,-3.6 3.9,-6.4 0,-2.8 -1.5,-5.1 -3.9,-6.4 L 74.5,54.1 C 71.2,52.5 67.6,51.6 64,51.6 Z"
         id="path3796"
         inkscape:connector-curvature="0"
         style="fill:#2d2e2d" /></g><g
       id="g3802"
       style="opacity:0.1"><path
         d="M 114.5,73 74.9,53.2 c -6.9,-3.4 -15,-3.4 -21.8,0 L 13.5,73 c -1.5,0.8 -2.7,1.9 -3.4,3.2 0.7,1.3 1.9,2.4 3.4,3.2 l 39.6,19.8 c 6.9,3.4 15,3.4 21.8,0 l 39.6,-19.8 c 1.5,-0.8 2.7,-1.9 3.4,-3.2 -0.7,-1.3 -1.9,-2.4 -3.4,-3.2 z"
         id="path3800"
         inkscape:connector-curvature="0"
         style="fill:#040606" /></g><g
       id="g3806"
       style="opacity:0.5;fill:#3139ae"><path
         d="M 114.5,71.3 74.9,91.1 c -6.9,3.4 -15,3.4 -21.8,0 L 13.5,71.3 c -6,-3 -6,-11.5 0,-14.5 L 53.1,37 c 6.9,-3.4 15,-3.4 21.8,0 l 39.6,19.8 c 6,2.9 6,11.5 0,14.5 z"
         id="path3804"
         inkscape:connector-curvature="0"
         style="fill:#3139ae" /></g><g
       id="g3810"><path
         d="m 64,94.6 c -3.9,0 -7.8,-0.9 -11.4,-2.7 L 13,72.2 C 9.9,70.6 8,67.5 8,64 8,60.5 9.9,57.4 13,55.8 L 52.6,36 c 7,-3.5 15.7,-3.5 22.7,0 L 115,55.8 c 3.1,1.6 5,4.7 5,8.2 0,3.5 -1.9,6.6 -5,8.2 L 75.4,92 c -3.6,1.7 -7.5,2.6 -11.4,2.6 z m 0,-59.2 c -3.6,0 -7.2,0.9 -10.5,2.5 L 13.9,57.6 C 11.5,58.9 10,61.2 10,64 c 0,2.8 1.5,5.1 3.9,6.4 l 39.6,19.8 c 6.5,3.2 14.5,3.2 20.9,0 L 114,70.4 c 2.5,-1.2 3.9,-3.6 3.9,-6.4 0,-2.8 -1.5,-5.1 -3.9,-6.4 L 74.5,37.8 C 71.2,36.2 67.6,35.4 64,35.4 Z"
         id="path3808"
         inkscape:connector-curvature="0"
         style="fill:#2d2e2d" /></g><g
       id="g3814"
       style="opacity:0.1"><path
         d="M 114.5,56.7 74.9,36.9 c -6.9,-3.4 -15,-3.4 -21.8,0 L 13.5,56.7 c -1.5,0.8 -2.7,1.9 -3.4,3.2 0.7,1.3 1.9,2.4 3.4,3.2 l 39.6,19.8 c 6.9,3.4 15,3.4 21.8,0 l 39.6,-19.8 c 1.5,-0.8 2.7,-1.9 3.4,-3.2 -0.7,-1.3 -1.9,-2.4 -3.4,-3.2 z"
         id="path3812"
         inkscape:connector-curvature="0"
         style="fill:#040606" /></g><g
       id="g3818"
       style="opacity:0.5;fill:#eca14f"><path
         d="M 114.5,55 74.9,74.8 c -6.9,3.4 -15,3.4 -21.8,0 L 13.5,55 c -6,-3 -6,-11.5 0,-14.5 L 53.1,20.7 c 6.9,-3.4 15,-3.4 21.8,0 l 39.6,19.8 c 6,3 6,11.5 0,14.5 z"
         id="path3816"
         inkscape:connector-curvature="0"
         style="fill:#eca14f" /></g><g
       id="g3822"><path
         d="m 64,78.4 c -3.9,0 -7.8,-0.9 -11.4,-2.7 L 13,55.9 C 9.9,54.3 8,51.2 8,47.7 8,44.2 9.9,41.1 13,39.5 L 52.6,19.7 c 7,-3.5 15.7,-3.5 22.7,0 L 115,39.6 c 3.1,1.6 5,4.7 5,8.2 0,3.5 -1.9,6.6 -5,8.2 L 75.4,75.7 c -3.6,1.8 -7.5,2.7 -11.4,2.7 z m 0,-59.3 c -3.6,0 -7.2,0.9 -10.5,2.5 L 13.9,41.4 C 11.5,42.6 10,45 10,47.7 c 0,2.7 1.5,5.1 3.9,6.4 l 39.6,19.8 c 6.5,3.2 14.5,3.2 20.9,0 L 114,54.1 c 2.5,-1.2 3.9,-3.6 3.9,-6.4 0,-2.8 -1.5,-5.1 -3.9,-6.4 L 74.5,21.6 C 71.2,19.9 67.6,19.1 64,19.1 Z"
         id="path3820"
         inkscape:connector-curvature="0"
         style="fill:#2d2e2d" /></g></g><flowRoot
     xml:space="preserve"
     id="flowRoot97"
     style="font-style:normal;font-weight:normal;font-size:40px;line-height:1.25;font-family:sans-serif;letter-spacing:0px;word-spacing:0px;fill:#000000;fill-opacity:1;stroke:none"><flowRegion
       id="flowRegion99"><rect
         id="rect101"
         width="117.05015"
         height="57.203541"
         x="129.51033"
         y="31.901693" /></flowRegion><flowPara
       id="flowPara103" /></flowRoot></svg>